<?xml version="1.0" standalone="no"?>
<!DOCTYPE svg PUBLIC "-//W3C//DTD SVG 20010904//EN"
 "http://www.w3.org/TR/2001/REC-SVG-20010904/DTD/svg10.dtd">
<svg version="1.0" xmlns="http://www.w3.org/2000/svg"
 width="50.000000pt" height="50.000000pt" viewBox="0 0 50.000000 50.000000"
 preserveAspectRatio="xMidYMid meet">
<metadata>
Created by potrace 1.16, written by Peter Selinger 2001-2019
</metadata>
<g transform="translate(0.000000,50.000000) scale(0.007812,-0.008039)"
fill="#000000" stroke="none">
<path d="M5634 5643 c4 -7 3 -13 -3 -13 -12 0 -17 -50 -31 -310 -56 -1057
-288 -1957 -642 -2487 -33 -50 -48 -82 -48 -106 0 -18 -3 -37 -7 -43 -5 -5 5
4 20 21 116 126 271 427 389 755 40 110 57 141 32 58 -7 -22 12 -24 20 -2 4
10 13 13 26 9 15 -5 21 0 26 19 7 30 20 34 27 9 4 -17 5 -17 6 -1 1 11 6 15
16 12 9 -4 15 0 15 10 0 9 6 13 14 10 8 -3 16 2 19 13 4 16 5 16 6 1 1 -22 27
-24 35 -2 3 8 10 12 16 9 5 -3 10 -1 10 4 0 15 27 14 33 -1 3 -8 6 -5 6 6 1
12 6 16 16 12 8 -3 21 2 30 10 9 9 23 13 35 9 14 -5 20 -2 20 9 0 9 9 16 20
16 11 0 20 5 20 10 0 6 11 10 25 10 14 0 25 5 25 10 0 6 11 10 25 10 14 0 25
5 25 10 0 18 20 11 21 -7 1 -10 6 -3 11 15 12 35 28 43 29 15 0 -11 3 -13 6
-5 2 6 11 12 19 12 8 0 14 8 15 18 0 14 2 14 9 -3 5 -11 9 -15 9 -9 1 11 57
24 111 27 14 1 32 8 40 16 13 13 15 12 18 -2 4 -18 22 -24 22 -7 0 18 20 11
21 -7 0 -11 5 -6 12 12 10 25 17 29 40 27 17 -2 27 1 27 10 0 9 3 9 10 -2 9
-13 10 -13 10 0 0 13 1 13 11 0 7 -11 8 -3 4 28 -5 28 -3 48 5 58 11 12 10 13
-4 8 -26 -10 -20 35 7 47 19 8 19 9 -7 4 -26 -6 -28 -4 -22 20 4 15 2 25 -4
25 -7 0 -9 8 -5 20 4 12 2 20 -5 20 -7 0 -9 8 -5 19 3 11 2 22 -4 25 -5 3 -7
15 -4 26 3 12 0 20 -7 20 -10 0 -10 3 -1 14 8 10 9 16 1 21 -6 3 -8 10 -5 15
3 5 1 19 -5 30 -8 15 -8 20 2 20 8 0 9 3 3 8 -6 4 -16 19 -22 35 -10 21 -10
27 0 27 8 0 9 3 1 8 -10 6 -54 124 -54 145 0 4 5 5 10 2 6 -3 10 -1 10 4 0 6
-7 11 -15 11 -8 0 -15 4 -15 9 0 5 -3 17 -7 27 -4 12 -3 15 5 10 7 -4 12 -2
12 3 0 6 -7 11 -15 11 -8 0 -15 5 -15 11 0 5 5 7 10 4 6 -3 10 -1 10 4 0 6 -7
11 -16 11 -10 0 -14 6 -10 15 3 8 1 15 -3 15 -16 0 -30 57 -18 70 9 9 9 11 -2
8 -7 -2 -16 3 -19 11 -3 8 0 11 7 7 6 -4 11 -2 11 3 0 6 -6 11 -14 11 -8 0
-19 14 -25 31 -13 39 -14 42 -1 34 6 -3 10 -1 10 4 0 6 -6 11 -14 11 -19 0
-30 32 -14 42 10 6 9 8 -3 8 -22 0 -34 31 -17 42 10 6 9 8 -3 8 -9 0 -20 7
-23 16 -10 26 -7 29 10 8 14 -18 15 -18 4 4 -6 12 -14 22 -19 22 -4 0 -13 11
-19 25 -16 35 -15 43 3 19 14 -18 14 -18 8 4 -3 12 -11 22 -18 22 -19 0 -57
93 -42 102 8 5 5 8 -8 8 -17 0 -17 2 -5 10 12 8 12 10 -5 10 -12 0 -16 3 -9 8
8 5 3 23 -18 62 -16 30 -27 46 -24 35 6 -20 6 -20 -9 -1 -17 23 -20 40 -5 31
6 -4 -4 23 -22 59 -19 38 -39 66 -48 66 -13 0 -13 1 0 10 13 9 13 10 -1 10
-18 0 -59 69 -52 88 3 7 -1 11 -7 10 -7 -2 -14 7 -15 20 -1 13 -10 31 -20 40
-17 16 -17 16 0 -13 l17 -30 -21 25 c-11 14 -19 30 -16 37 2 6 -6 19 -17 30
-12 10 -18 12 -14 6z"/>
<path d="M5511 5362 c-5 -10 -9 -27 -8 -37 1 -11 -3 -20 -10 -20 -6 0 -15 -4
-20 -9 -5 -5 -2 -6 6 -1 9 5 12 3 9 -6 -3 -8 -10 -13 -16 -12 -5 1 -9 -5 -8
-15 0 -9 -5 -16 -12 -14 -8 1 -11 -2 -7 -8 3 -5 3 -15 -1 -21 -4 -8 -8 -8 -13
0 -4 6 -12 2 -20 -12 -13 -20 -13 -21 2 -8 10 7 17 9 17 3 0 -12 -25 -34 -32
-27 -3 3 -11 -3 -19 -12 -13 -16 -12 -17 4 -4 32 25 17 -1 -34 -60 -28 -32
-54 -57 -58 -55 -3 2 -22 -9 -41 -26 l-35 -30 40 27 c31 21 22 10 -35 -48 -68
-69 -103 -96 -84 -65 4 7 3 8 -5 4 -6 -4 -9 -11 -6 -15 2 -5 -7 -18 -20 -31
-13 -13 -22 -26 -20 -31 3 -4 0 -11 -6 -15 -7 -4 -9 -3 -6 2 3 6 2 16 -2 22
-6 10 -11 9 -22 -4 -12 -16 -12 -17 1 -9 9 5 8 0 -4 -13 -11 -12 -15 -22 -11
-22 4 0 0 -9 -10 -20 -10 -11 -23 -20 -29 -20 -6 0 0 10 14 21 l25 20 -25 -12
c-14 -7 -29 -12 -34 -11 -5 2 -4 -4 3 -12 10 -12 1 -23 -58 -67 -39 -29 -66
-56 -61 -59 5 -3 -13 -23 -40 -44 -66 -51 -64 -58 3 -10 198 143 331 263 463
417 108 126 272 365 235 343 -14 -9 -14 0 -1 25 6 10 8 19 6 19 -3 0 -10 -8
-15 -18z"/>
<path d="M3983 4163 c-25 -10 -115 -341 -152 -563 -44 -255 -55 -404 -55 -715
-1 -332 12 -477 64 -735 32 -161 88 -360 101 -360 10 0 225 185 235 202 4 7
-4 3 -18 -10 -23 -21 -26 -21 -32 -6 -4 10 -2 21 5 24 8 6 9 29 3 81 -4 41 -8
85 -9 99 0 14 -4 31 -9 39 -5 7 -10 72 -12 145 -2 72 -7 149 -10 171 -3 22 -7
63 -9 92 -1 28 -5 55 -7 60 -3 4 -6 52 -7 106 -1 54 -6 109 -11 123 -14 35
-12 71 3 77 9 3 7 10 -6 24 -11 12 -17 34 -16 54 3 67 -13 284 -22 293 -13 14
-11 44 4 49 9 3 9 7 0 19 -10 12 -22 169 -24 313 0 11 -6 26 -13 35 -9 10 -13
52 -14 133 -1 65 -6 124 -11 131 -16 19 12 99 40 113 23 12 8 17 -18 6z"/>
<path d="M2923 3750 c-50 -44 -95 -80 -99 -80 -13 0 -62 -65 -56 -75 3 -5 -2
-4 -12 4 -9 8 -16 10 -15 5 3 -14 -12 -44 -23 -44 -5 0 -6 5 -3 10 3 6 4 10 1
10 -3 0 -10 -10 -17 -21 -6 -13 -7 -19 -1 -15 6 3 -26 -49 -71 -117 -45 -68
-85 -120 -88 -115 -3 5 -11 -4 -18 -18 -11 -25 -11 -26 5 -13 16 13 16 12 5
-8 -6 -13 -19 -23 -29 -23 -15 0 -15 -2 -2 -10 12 -8 12 -10 -5 -10 -15 0 -16
-3 -7 -9 11 -6 7 -20 -14 -64 -16 -32 -35 -57 -44 -58 -10 0 -11 -2 -2 -6 6
-2 12 -9 12 -14 0 -6 -4 -8 -9 -5 -5 3 -9 0 -8 -7 1 -32 -4 -48 -13 -42 -6 3
-7 -1 -4 -9 4 -11 0 -16 -12 -16 -15 0 -16 -2 -5 -9 12 -8 12 -12 2 -25 -8 -9
-10 -16 -6 -16 4 0 2 -7 -5 -15 -7 -8 -9 -15 -5 -15 5 0 1 -8 -8 -18 -10 -10
-14 -21 -11 -25 3 -3 -10 -70 -30 -149 -60 -243 -87 -486 -80 -725 2 -72 19
-261 38 -420 62 -513 92 -871 116 -1348 6 -121 13 -224 14 -230 2 -6 9 3 16
20 40 94 70 155 75 155 3 0 -1 -13 -10 -30 -21 -40 -36 -80 -30 -80 3 0 16 25
30 55 13 31 33 69 45 85 23 32 26 45 8 34 -7 -4 -4 2 6 14 23 26 34 29 15 5
-7 -10 3 -3 24 16 37 34 44 57 9 30 -10 -8 -2 1 17 19 45 41 137 85 221 106
36 8 153 25 260 36 399 42 630 83 885 155 70 20 134 34 142 31 9 -4 11 -1 7 6
-5 7 2 9 22 5 16 -3 23 -4 15 0 -8 3 25 20 79 39 101 37 115 40 104 22 -4 -7
-3 -8 5 -4 6 4 9 11 6 16 -3 5 12 14 32 21 50 16 235 91 320 129 37 17 73 28
81 25 7 -2 11 -1 8 3 -8 13 249 136 264 127 9 -5 11 -4 6 3 -8 13 149 96 165
87 5 -4 8 -1 7 7 -2 8 6 13 19 12 12 0 20 3 17 7 -7 12 54 41 68 33 7 -5 8 -3
3 6 -6 10 -4 12 9 7 10 -4 15 -3 11 3 -7 11 52 43 66 35 5 -4 8 -1 7 7 -2 7 5
12 14 12 10 -1 16 3 15 10 -1 6 6 10 15 10 10 -1 15 2 12 7 -5 8 9 13 28 10 5
0 7 5 5 12 -1 6 5 11 14 9 9 -1 23 6 30 15 13 17 13 17 -6 3 -19 -14 -19 -14
-6 3 8 10 20 16 27 13 7 -3 16 0 20 6 5 7 2 8 -7 3 -12 -8 -12 -6 0 8 7 10 21
16 30 15 8 -2 16 4 16 12 1 8 6 14 13 13 7 -2 11 2 9 8 -1 6 4 14 12 17 10 3
11 0 5 -9 -13 -22 105 83 174 154 56 59 84 98 47 67 -28 -23 -15 -4 17 26 18
16 26 20 18 10 -9 -11 -10 -17 -3 -13 7 4 22 22 34 40 l23 32 -23 -20 c-13
-11 0 12 28 50 29 38 56 70 61 70 5 0 12 4 17 9 5 5 2 6 -6 1 -9 -5 -12 -3 -9
6 3 8 10 13 16 12 6 -2 29 29 51 68 22 38 36 67 31 64 -6 -4 -19 -24 -30 -45
-11 -21 -24 -41 -30 -45 -5 -3 5 19 22 50 18 30 39 55 48 56 8 0 10 3 4 5 -17
7 45 144 65 144 12 0 13 2 3 8 -16 10 -5 42 14 42 8 0 14 5 14 11 0 5 -4 7
-10 4 -18 -11 -11 8 13 34 12 14 14 19 5 12 -16 -12 -17 -11 -7 20 7 19 16 39
22 44 7 7 7 5 2 -4 -6 -10 -4 -12 4 -6 8 5 9 11 3 17 -13 13 -3 48 14 48 8 0
14 5 14 11 0 5 -4 7 -10 4 -13 -8 -13 -8 14 108 12 54 26 97 30 97 4 -1 11 2
14 6 4 4 1 4 -5 0 -16 -9 -16 -7 2 139 12 92 15 199 13 460 -2 187 -6 324 -9
305 l-6 -35 -2 43 c-1 30 2 41 11 36 7 -4 8 -3 4 5 -4 6 -11 9 -15 6 -5 -2
-11 19 -15 48 -9 75 -8 89 6 81 7 -4 8 -3 4 5 -4 6 -12 9 -17 6 -5 -4 -9 8 -9
25 0 48 -14 29 -55 -72 -189 -473 -483 -849 -860 -1099 -236 -157 -533 -271
-785 -301 l-95 -12 -160 -155 c-224 -219 -391 -360 -654 -555 -129 -96 -658
-448 -613 -408 17 16 29 32 25 35 -3 4 -12 2 -20 -4 -7 -6 -13 -8 -12 -3 0 5
47 42 105 82 l104 73 0 79 c0 43 -4 82 -10 85 -5 3 -10 15 -10 26 0 11 5 17
10 14 6 -3 10 1 10 9 0 8 -5 18 -11 21 -5 4 -9 32 -8 63 1 32 -1 102 -5 157
-5 55 -10 143 -11 195 -9 227 -18 366 -27 377 -5 6 -11 93 -13 193 -3 99 -7
186 -11 191 -3 6 -8 85 -11 176 -2 90 -8 175 -13 187 -5 13 -5 40 0 59 6 27 4
39 -6 48 -17 14 -18 46 -1 52 10 4 10 7 0 18 -8 8 -13 41 -13 85 0 41 -4 74
-10 76 -7 2 -5 19 5 47 8 24 13 46 11 49 -7 6 -102 -293 -141 -443 -131 -499
-159 -979 -84 -1425 21 -125 76 -351 108 -442 l20 -58 -62 -42 c-110 -73 -230
-160 -307 -222 -41 -33 -64 -47 -50 -32 16 18 24 36 22 53 -3 16 0 23 7 19 14
-9 14 7 0 21 -8 8 -12 87 -8 173 1 8 -2 62 -6 120 -3 58 -8 162 -10 231 -2 83
-8 133 -16 148 -12 18 -12 23 1 31 11 7 12 13 2 32 -7 13 -12 46 -11 73 1 28
-1 102 -4 165 -4 63 -10 165 -13 225 -3 61 -8 117 -11 125 -11 28 -13 111 -3
105 6 -3 10 -2 10 4 0 5 -4 12 -10 16 -5 3 -9 18 -8 33 2 44 -21 362 -31 422
-6 35 -5 57 1 61 6 4 7 35 1 85 -4 44 -7 89 -6 102 1 12 -2 22 -8 22 -5 0 -9
-5 -9 -12 0 -6 -3 -9 -6 -6 -9 10 81 180 154 289 79 118 188 246 283 333 35
32 48 46 29 31 l-35 -28 -3 27 c-2 15 2 34 9 42 23 28 3 13 -88 -66z"/>
</g>
</svg>
